Coordinates
version=1
nRows=11
nColumns=40
inDegrees=yes

Units are S.I. units (second, meters, Newtons, ...)
Angles are in degrees.

endheader
time	pelvis_tilt	pelvis_list	pelvis_rotation	pelvis_tx	pelvis_ty	pelvis_tz	hip_flexion_r	hip_adduction_r	hip_rotation_r	knee_angle_r	knee_angle_r_beta	ankle_angle_r	subtalar_angle_r	mtp_angle_r	hip_flexion_l	hip_adduction_l	hip_rotation_l	knee_angle_l	knee_angle_l_beta	ankle_angle_l	subtalar_angle_l	mtp_angle_l	lumbar_extension	lumbar_bending	lumbar_rotation	arm_flex_r	arm_add_r	arm_rot_r	elbow_flex_r	pro_sup_r	wrist_flex_r	wrist_dev_r	arm_flex_l	arm_add_l	arm_rot_l	elbow_flex_l	pro_sup_l	wrist_flex_l	wrist_dev_l
     14.49000000	     -6.57031988	     -4.76587912	      5.54765844	      0.99145043	      0.91908353	      0.40562563	      6.31729236	     -5.64124116	    -12.70044176	     31.13054131	     31.13054131	     10.57815442	     -5.21620745	    -16.30462773	     24.33245949	     -1.28291118	      0.02116871	     29.20849652	     29.20849652	     14.88584082	    -15.74508791	      7.18683633	     -9.00611316	      5.34347906	      5.18889682	     37.77365869	    -15.28960899	    -15.97254664	     32.37497029	     45.72121532	      0.00000000	      0.00000000	      1.14438796	    -11.11223388	     15.42824707	     26.42551986	     44.54713876	      0.00000000	      0.00000000
     14.51364286	     -6.44161066	     -4.75203325	      4.70766781	      0.99055908	      0.91688213	      0.40273554	      9.63542002	     -6.48105271	    -10.93159639	     37.50995589	     37.50995589	      9.19820094	     -7.74684187	    -17.34099973	     24.45628998	     -1.27700986	     -0.39050680	     30.41232172	     30.41232172	     15.56746608	    -16.43345667	      7.04368511	     -9.31706624	      5.55427027	      4.52197387	     34.04263056	    -14.38621086	    -15.98822367	     30.76113670	     45.77122778	      0.00000000	      0.00000000	      3.39465122	    -11.37789112	     15.30721292	     27.23659372	     44.61985298	      0.00000000	      0.00000000
     14.53728571	     -6.21557257	     -4.69972998	      3.86686924	      0.98971717	      0.91458134	      0.39987214	     12.72972691	     -7.10238494	     -9.09164025	     43.46873550	     43.46873550	      7.48999607	    -10.11800817	    -17.58206015	     24.48830374	     -1.25977369	     -0.88223237	     31.69391263	     31.69391263	     16.46643733	    -16.97784156	      7.07819138	     -9.77887139	      5.74824611	      4.05111942	     30.14074699	    -13.76817888	    -15.97811765	     28.98596419	     45.82772854	      0.00000000	      0.00000000	      5.98379334	    -11.74098711	     15.25448898	     27.97086552	     44.68984399	      0.00000000	      0.00000000
     14.56092857	     -5.96786431	     -4.66800442	      3.05843500	      0.98896686	      0.91235332	      0.39709677	     15.61736979	     -7.48699364	     -7.32994376	     48.86430017	     48.86430017	      5.88960490	    -11.91432766	    -16.71860072	     24.45088077	     -1.26520275	     -1.37092144	     32.91508699	     32.91508699	     17.43655066	    -17.37732623	      7.30805032	    -10.25118086	      5.95948092	      3.71035646	     26.05666477	    -13.35093447	    -15.96605645	     27.11589550	     45.88916768	      0.00000000	      0.00000000	      8.77517995	    -12.15938208	     15.27840470	     28.61891094	     44.75227053	      0.00000000	      0.00000000
     14.58457143	     -5.68372073	     -4.59170780	      2.28423930	      0.98830017	      0.91046041	      0.39450849	     18.34629133	     -7.78757721	     -5.76520261	     53.86988717	     53.86988717	      5.66387684	    -12.11877853	    -11.89127566	     24.33081114	     -1.21001875	     -1.81679487	     34.09779305	     34.09779305	     18.91623429	    -17.54954417	      8.94902591	    -10.74044361	      6.13778469	      3.58214580	     21.69596467	    -13.09287333	    -16.00616794	     25.74085728	     45.98459848	      0.00000000	      0.00000000	     12.11112400	    -12.50099327	     16.27082184	     28.14681974	     44.74313597	      0.00000000	      0.00000000
     14.60821429	     -5.44259240	     -4.57689316	      1.54041291	      0.98771236	      0.90893642	      0.39224177	     20.73254523	     -7.85861506	     -4.40415328	     57.70027910	     57.70027910	      4.23778611	    -13.14817485	    -10.70327744	     24.05937925	     -1.23610073	     -2.30064903	     34.85586842	     34.85586842	     19.58990991	    -17.85324305	      8.79686398	    -11.15184735	      6.37503291	      3.06811879	     17.75126682	    -12.68791104	    -16.00233839	     24.04027393	     46.03619433	      0.00000000	      0.00000000	     14.64823127	    -13.18622457	     16.08822439	     29.19094838	     44.82111066	      0.00000000	      0.00000000
     14.63185714	     -5.18814904	     -4.60259648	      0.81044324	      0.98717317	      0.90806048	      0.39041123	     22.86555176	     -7.74238458	     -3.20068214	     60.71435845	     60.71435845	      3.38246842	    -13.77369183	     -8.66416314	     23.66232908	     -1.33096400	     -2.78721554	     35.39658233	     35.39658233	     20.20185685	    -18.03837092	      8.90648001	    -11.58250524	      6.64447530	      2.75378313	     13.81279365	    -12.47896664	    -15.99864023	     22.48748027	     46.08549717	      0.00000000	      0.00000000	     17.30622364	    -13.80030194	     15.88061754	     30.20451031	     44.90553662	      0.00000000	      0.00000000
     14.65550000	     -4.82480334	     -4.68649797	      0.18312345	      0.98679327	      0.90803434	      0.38883207	     24.48479492	     -7.66358422	     -2.51243753	     62.63599144	     62.63599144	      2.62057752	    -14.03417227	     -7.99012631	     22.95199054	     -1.45113525	     -3.17481282	     35.57240436	     35.57240436	     20.69977514	    -18.20782168	      8.88359750	    -12.08221474	      6.98298175	      1.46939969	     10.56785794	    -11.92764659	    -16.02645370	     21.29579849	     46.11339169	      0.00000000	      0.00000000	     19.48937339	    -15.04426899	     15.56930319	     30.81485008	     44.98339934	      0.00000000	      0.00000000
     14.67914286	     -4.80553949	     -4.73987890	     -0.64745032	      0.98608223	      0.90822497	      0.38799272	     26.63964943	     -7.31223345	     -1.53837893	     64.33834987	     64.33834987	      4.61947550	    -13.15086905	      0.07775149	     22.52898217	     -1.61229827	     -3.72734860	     35.59649738	     35.59649738	     21.54042980	    -18.21468300	     10.22984516	    -12.31882655	      7.22575954	      2.26990740	      5.55429732	    -12.10480563	    -15.83110784	     22.10606382	     46.10234732	      0.00000000	      0.00000000	     22.56456888	    -15.02108572	     14.79646471	     31.81979278	     45.20252095	      0.00000000	      0.00000000
     14.70278571	     -4.79301367	     -4.82985196	     -1.43277963	      0.98537488	      0.90913045	      0.38755517	     28.20921049	     -7.01211022	     -0.99136969	     64.41730055	     64.41730055	      4.38144072	    -13.42907489	      0.14114112	     21.89800834	     -1.83147343	     -4.30520481	     35.17121297	     35.17121297	     21.71982354	    -18.27264395	     10.25895802	    -12.47628857	      7.48373796	      1.88021542	      2.28402536	    -11.91566657	    -15.67934640	     20.92044052	     46.12990690	      0.00000000	      0.00000000	     24.82883678	    -15.87985361	     14.20158092	     33.03695479	     45.32655517	      0.00000000	      0.00000000
     14.72642857	     -4.87416092	     -4.88112035	     -2.29166345	      0.98455863	      0.91061048	      0.38763240	     29.59800087	     -6.69821737	     -0.54367620	     63.50437769	     63.50437769	      4.40359441	    -13.57841396	     -0.01895398	     21.18099508	     -2.03912614	     -4.97456819	     34.39351731	     34.39351731	     21.76337006	    -18.28804964	     10.38786126	    -12.55232336	      7.63894151	      1.55372813	     -0.80206852	    -11.72325668	    -15.59226572	     20.07984295	     46.14237769	      0.00000000	      0.00000000	     27.00362467	    -16.78796607	     13.47270747	     34.36138343	     45.46102592	      0.00000000	      0.00000000
